<svg text-rendering="geometricPrecision" width="980" height="610" viewBox="0 0 980 610" fill="none" xmlns="http://www.w3.org/2000/svg" role="img" aria-label="Anthony Fu terminal identity card">
  <rect width="980" height="610" rx="22" fill="#150d19"></rect>
  <rect x="28" y="24" width="924" height="72" rx="14" fill="#26142c"></rect>
  
  <rect x="52" y="52" width="24" height="16" rx="8" fill="#552048"></rect>
  <rect x="84" y="52" width="24" height="16" rx="8" fill="#683e61"></rect>
  <rect x="116" y="52" width="24" height="16" rx="8" fill="#6e4e4a"></rect>
  <text font-weight="500" x="490" y="66" text-anchor="middle" font-family="'IBM Plex Mono', 'Nanum Gothic Coding', D2Coding, Consolas, 'Apple SD Gothic Neo', 'Malgun Gothic', 'Courier New', monospace" font-size="17" fill="#ffe3ee">obsidian workspace</text>
  
  <rect x="28" y="96" width="924" height="486" rx="14" fill="#221227"></rect>

  <rect x="52" y="128" width="249" height="400" rx="10" fill="#27142d"></rect>
  <text font-weight="500" x="70" y="150" font-family="'IBM Plex Mono', 'Nanum Gothic Coding', D2Coding, Consolas, 'Apple SD Gothic Neo', 'Malgun Gothic', 'Courier New', monospace" font-size="12" fill="#bfa4b5">workspace</text>
  <text font-weight="500" x="70" y="190" font-family="'IBM Plex Mono', 'Nanum Gothic Coding', D2Coding, Consolas, 'Apple SD Gothic Neo', 'Malgun Gothic', 'Courier New', monospace" font-size="17" fill="#fff4fa">Anthony Fu</text>
  <text font-weight="500" x="70" y="212" font-family="'IBM Plex Mono', 'Nanum Gothic Coding', D2Coding, Consolas, 'Apple SD Gothic Neo', 'Malgun Gothic', 'Courier New', monospace" font-size="13" fill="#bfa4b5">@antfu</text>
  <text font-weight="500" x="70" y="258" font-family="'IBM Plex Mono', 'Nanum Gothic Coding', D2Coding, Consolas, 'Apple SD Gothic Neo', 'Malgun Gothic', 'Courier New', monospace" font-size="12" fill="#bfa4b5">role</text>
  <text font-weight="500" x="70" y="280" font-family="'IBM Plex Mono', 'Nanum Gothic Coding', D2Coding, Consolas, 'Apple SD Gothic Neo', 'Malgun Gothic', 'Courier New', monospace" font-size="14" fill="#fff4fa">open-source designe…</text>
  <text font-weight="500" x="70" y="324" font-family="'IBM Plex Mono', 'Nanum Gothic Coding', D2Coding, Consolas, 'Apple SD Gothic Neo', 'Malgun Gothic', 'Courier New', monospace" font-size="12" fill="#bfa4b5">model</text>
  <text font-weight="500" x="70" y="346" font-family="'IBM Plex Mono', 'Nanum Gothic Coding', D2Coding, Consolas, 'Apple SD Gothic Neo', 'Malgun Gothic', 'Courier New', monospace" font-size="14" fill="#fff4fa">obsidian/velvet</text>

  <rect x="319" y="128" width="609" height="168" rx="10" fill="#2c1633"></rect>
  <text font-weight="500" x="341" y="152" font-family="'IBM Plex Mono', 'Nanum Gothic Coding', D2Coding, Consolas, 'Apple SD Gothic Neo', 'Malgun Gothic', 'Courier New', monospace" font-size="12" fill="#bfa4b5">prompt</text>
  <text x="341" y="190" font-family="'Sora', 'Noto Sans KR', 'Apple SD Gothic Neo', 'Malgun Gothic', 'Segoe UI', Arial, sans-serif" font-size="22" font-weight="700" fill="#fff4fa">Tooling, DX, and tiny night lights …</text>
  <rect x="341" y="213" width="565" height="1" fill="rgba(250,162,193,0.12)"></rect>
  
  <circle cx="341" cy="271" r="5" fill="#d6336c"></circle>
  <text font-weight="500" x="355" y="277" font-family="'IBM Plex Mono', 'Nanum Gothic Coding', D2Coding, Consolas, 'Apple SD Gothic Neo', 'Malgun Gothic', 'Courier New', monospace" font-size="13" fill="#fff4fa">69k stars • 392 repos • 39k followers</text>

  <rect x="319" y="310" width="609" height="218" rx="10" fill="#27142d"></rect>
  <text font-weight="500" x="341" y="332" font-family="'IBM Plex Mono', 'Nanum Gothic Coding', D2Coding, Consolas, 'Apple SD Gothic Neo', 'Malgun Gothic', 'Courier New', monospace" font-size="12" fill="#bfa4b5">output</text>
  
  
  
  <text font-weight="500" x="341" y="358" font-family="'IBM Plex Mono', 'Nanum Gothic Coding', D2Coding, Consolas, 'Apple SD Gothic Neo', 'Malgun Gothic', 'Courier New', monospace" font-size="11" fill="#bfa4b5" letter-spacing="0.5">CONTRIBUTIONS</text>
  <text font-weight="500" x="906" y="358" text-anchor="end" font-family="'IBM Plex Mono', 'Nanum Gothic Coding', D2Coding, Consolas, 'Apple SD Gothic Neo', 'Malgun Gothic', 'Courier New', monospace" font-size="11" fill="#bfa4b5">1.1k last 16 weeks</text>
  
  
  <g>
    
    <rect x="341" y="372" width="16" height="16" rx="7" fill="rgba(255,255,255,0.03)"></rect>
    <rect x="341" y="390" width="16" height="16" rx="7" fill="rgba(255,255,255,0.03)"></rect>
    <rect x="341" y="408" width="16" height="16" rx="7" fill="rgba(255,255,255,0.03)"></rect>
    <circle cx="349" cy="416" r="5.984" fill="rgba(255,226,122,0.22)" opacity="0.26"></circle>
    <circle cx="349" cy="416" r="2.7199999999999998" fill="rgba(255,221,120,0.24)"></circle>
    <rect x="341" y="426" width="16" height="16" rx="7" fill="rgba(255,255,255,0.03)"></rect>
    <circle cx="349" cy="434" r="5.984" fill="rgba(255,226,122,0.22)" opacity="0.26"></circle>
    <circle cx="349" cy="434" r="2.7199999999999998" fill="rgba(255,221,120,0.24)"></circle>
    <rect x="341" y="444" width="16" height="16" rx="7" fill="rgba(255,255,255,0.03)"></rect>
    <rect x="341" y="462" width="16" height="16" rx="7" fill="rgba(255,255,255,0.03)"></rect>
    <rect x="341" y="480" width="16" height="16" rx="7" fill="rgba(255,255,255,0.03)"></rect>
    <circle cx="349" cy="488" r="5.984" fill="rgba(255,226,122,0.22)" opacity="0.26"></circle>
    <circle cx="349" cy="488" r="2.7199999999999998" fill="rgba(255,221,120,0.24)"></circle>
    <rect x="359" y="372" width="16" height="16" rx="7" fill="rgba(255,255,255,0.03)"></rect>
    <rect x="359" y="390" width="16" height="16" rx="7" fill="rgba(255,255,255,0.03)"></rect>
    <rect x="359" y="408" width="16" height="16" rx="7" fill="rgba(255,255,255,0.03)"></rect>
    <circle cx="367" cy="416" r="9.504000000000001" fill="rgba(255,226,122,0.22)" opacity="0.42"></circle>
    <circle cx="367" cy="416" r="4.32" fill="rgba(255,221,120,0.72)"></circle>
    <rect x="359" y="426" width="16" height="16" rx="7" fill="rgba(255,255,255,0.03)"></rect>
    <circle cx="367" cy="434" r="9.504000000000001" fill="rgba(255,226,122,0.22)" opacity="0.42"></circle>
    <circle cx="367" cy="434" r="4.32" fill="rgba(255,221,120,0.72)"></circle>
    <rect x="359" y="444" width="16" height="16" rx="7" fill="rgba(255,255,255,0.03)"></rect>
    <circle cx="367" cy="452" r="5.984" fill="rgba(255,226,122,0.22)" opacity="0.26"></circle>
    <circle cx="367" cy="452" r="2.7199999999999998" fill="rgba(255,221,120,0.24)"></circle>
    <rect x="359" y="462" width="16" height="16" rx="7" fill="rgba(255,255,255,0.03)"></rect>
    <circle cx="367" cy="470" r="5.984" fill="rgba(255,226,122,0.22)" opacity="0.26"></circle>
    <circle cx="367" cy="470" r="2.7199999999999998" fill="rgba(255,221,120,0.24)"></circle>
    <rect x="359" y="480" width="16" height="16" rx="7" fill="rgba(255,255,255,0.03)"></rect>
    <circle cx="367" cy="488" r="5.984" fill="rgba(255,226,122,0.22)" opacity="0.26"></circle>
    <circle cx="367" cy="488" r="2.7199999999999998" fill="rgba(255,221,120,0.24)"></circle>
    <rect x="377" y="372" width="16" height="16" rx="7" fill="rgba(255,255,255,0.03)"></rect>
    <rect x="377" y="390" width="16" height="16" rx="7" fill="rgba(255,255,255,0.03)"></rect>
    <circle cx="385" cy="398" r="5.984" fill="rgba(255,226,122,0.22)" opacity="0.26"></circle>
    <circle cx="385" cy="398" r="2.7199999999999998" fill="rgba(255,221,120,0.24)"></circle>
    <rect x="377" y="408" width="16" height="16" rx="7" fill="rgba(255,255,255,0.03)"></rect>
    <circle cx="385" cy="416" r="7.744000000000001" fill="rgba(255,226,122,0.22)" opacity="0.33999999999999997"></circle>
    <circle cx="385" cy="416" r="3.52" fill="rgba(255,221,120,0.44)"></circle>
    <rect x="377" y="426" width="16" height="16" rx="7" fill="rgba(255,255,255,0.03)"></rect>
    <circle cx="385" cy="434" r="9.504000000000001" fill="rgba(255,226,122,0.22)" opacity="0.42"></circle>
    <circle cx="385" cy="434" r="4.32" fill="rgba(255,221,120,0.72)"></circle>
    <rect x="377" y="444" width="16" height="16" rx="7" fill="rgba(255,255,255,0.03)"></rect>
    <circle cx="385" cy="452" r="5.984" fill="rgba(255,226,122,0.22)" opacity="0.26"></circle>
    <circle cx="385" cy="452" r="2.7199999999999998" fill="rgba(255,221,120,0.24)"></circle>
    <rect x="377" y="462" width="16" height="16" rx="7" fill="rgba(255,255,255,0.03)"></rect>
    <circle cx="385" cy="470" r="5.984" fill="rgba(255,226,122,0.22)" opacity="0.26"></circle>
    <circle cx="385" cy="470" r="2.7199999999999998" fill="rgba(255,221,120,0.24)"></circle>
    <rect x="377" y="480" width="16" height="16" rx="7" fill="rgba(255,255,255,0.03)"></rect>
    <circle cx="385" cy="488" r="5.984" fill="rgba(255,226,122,0.22)" opacity="0.26"></circle>
    <circle cx="385" cy="488" r="2.7199999999999998" fill="rgba(255,221,120,0.24)"></circle>
    <rect x="395" y="372" width="16" height="16" rx="7" fill="rgba(255,255,255,0.03)"></rect>
    <rect x="395" y="390" width="16" height="16" rx="7" fill="rgba(255,255,255,0.03)"></rect>
    <circle cx="403" cy="398" r="5.984" fill="rgba(255,226,122,0.22)" opacity="0.26"></circle>
    <circle cx="403" cy="398" r="2.7199999999999998" fill="rgba(255,221,120,0.24)"></circle>
    <rect x="395" y="408" width="16" height="16" rx="7" fill="rgba(255,255,255,0.03)"></rect>
    <circle cx="403" cy="416" r="7.744000000000001" fill="rgba(255,226,122,0.22)" opacity="0.33999999999999997"></circle>
    <circle cx="403" cy="416" r="3.52" fill="rgba(255,221,120,0.44)"></circle>
    <rect x="395" y="426" width="16" height="16" rx="7" fill="rgba(255,255,255,0.03)"></rect>
    <circle cx="403" cy="434" r="5.984" fill="rgba(255,226,122,0.22)" opacity="0.26"></circle>
    <circle cx="403" cy="434" r="2.7199999999999998" fill="rgba(255,221,120,0.24)"></circle>
    <rect x="395" y="444" width="16" height="16" rx="7" fill="rgba(255,255,255,0.03)"></rect>
    <rect x="395" y="462" width="16" height="16" rx="7" fill="rgba(255,255,255,0.03)"></rect>
    <circle cx="403" cy="470" r="5.984" fill="rgba(255,226,122,0.22)" opacity="0.26"></circle>
    <circle cx="403" cy="470" r="2.7199999999999998" fill="rgba(255,221,120,0.24)"></circle>
    <rect x="395" y="480" width="16" height="16" rx="7" fill="rgba(255,255,255,0.03)"></rect>
    <rect x="413" y="372" width="16" height="16" rx="7" fill="rgba(255,255,255,0.03)"></rect>
    <circle cx="421" cy="380" r="5.984" fill="rgba(255,226,122,0.22)" opacity="0.26"></circle>
    <circle cx="421" cy="380" r="2.7199999999999998" fill="rgba(255,221,120,0.24)"></circle>
    <rect x="413" y="390" width="16" height="16" rx="7" fill="rgba(255,255,255,0.03)"></rect>
    <circle cx="421" cy="398" r="9.504000000000001" fill="rgba(255,226,122,0.22)" opacity="0.42"></circle>
    <circle cx="421" cy="398" r="4.32" fill="rgba(255,221,120,0.72)"></circle>
    <rect x="413" y="408" width="16" height="16" rx="7" fill="rgba(255,255,255,0.03)"></rect>
    <circle cx="421" cy="416" r="5.984" fill="rgba(255,226,122,0.22)" opacity="0.26"></circle>
    <circle cx="421" cy="416" r="2.7199999999999998" fill="rgba(255,221,120,0.24)"></circle>
    <rect x="413" y="426" width="16" height="16" rx="7" fill="rgba(255,255,255,0.03)"></rect>
    <circle cx="421" cy="434" r="11.264000000000001" fill="rgba(255,226,122,0.22)" opacity="0.5"></circle>
    <circle cx="421" cy="434" r="5.12" fill="#ffe27a"></circle>
    <rect x="413" y="444" width="16" height="16" rx="7" fill="rgba(255,255,255,0.03)"></rect>
    <circle cx="421" cy="452" r="5.984" fill="rgba(255,226,122,0.22)" opacity="0.26"></circle>
    <circle cx="421" cy="452" r="2.7199999999999998" fill="rgba(255,221,120,0.24)"></circle>
    <rect x="413" y="462" width="16" height="16" rx="7" fill="rgba(255,255,255,0.03)"></rect>
    <circle cx="421" cy="470" r="5.984" fill="rgba(255,226,122,0.22)" opacity="0.26"></circle>
    <circle cx="421" cy="470" r="2.7199999999999998" fill="rgba(255,221,120,0.24)"></circle>
    <rect x="413" y="480" width="16" height="16" rx="7" fill="rgba(255,255,255,0.03)"></rect>
    <circle cx="421" cy="488" r="9.504000000000001" fill="rgba(255,226,122,0.22)" opacity="0.42"></circle>
    <circle cx="421" cy="488" r="4.32" fill="rgba(255,221,120,0.72)"></circle>
    <rect x="431" y="372" width="16" height="16" rx="7" fill="rgba(255,255,255,0.03)"></rect>
    <circle cx="439" cy="380" r="5.984" fill="rgba(255,226,122,0.22)" opacity="0.26"></circle>
    <circle cx="439" cy="380" r="2.7199999999999998" fill="rgba(255,221,120,0.24)"></circle>
    <rect x="431" y="390" width="16" height="16" rx="7" fill="rgba(255,255,255,0.03)"></rect>
    <circle cx="439" cy="398" r="5.984" fill="rgba(255,226,122,0.22)" opacity="0.26"></circle>
    <circle cx="439" cy="398" r="2.7199999999999998" fill="rgba(255,221,120,0.24)"></circle>
    <rect x="431" y="408" width="16" height="16" rx="7" fill="rgba(255,255,255,0.03)"></rect>
    <circle cx="439" cy="416" r="5.984" fill="rgba(255,226,122,0.22)" opacity="0.26"></circle>
    <circle cx="439" cy="416" r="2.7199999999999998" fill="rgba(255,221,120,0.24)"></circle>
    <rect x="431" y="426" width="16" height="16" rx="7" fill="rgba(255,255,255,0.03)"></rect>
    <circle cx="439" cy="434" r="7.744000000000001" fill="rgba(255,226,122,0.22)" opacity="0.33999999999999997"></circle>
    <circle cx="439" cy="434" r="3.52" fill="rgba(255,221,120,0.44)"></circle>
    <rect x="431" y="444" width="16" height="16" rx="7" fill="rgba(255,255,255,0.03)"></rect>
    <circle cx="439" cy="452" r="7.744000000000001" fill="rgba(255,226,122,0.22)" opacity="0.33999999999999997"></circle>
    <circle cx="439" cy="452" r="3.52" fill="rgba(255,221,120,0.44)"></circle>
    <rect x="431" y="462" width="16" height="16" rx="7" fill="rgba(255,255,255,0.03)"></rect>
    <circle cx="439" cy="470" r="5.984" fill="rgba(255,226,122,0.22)" opacity="0.26"></circle>
    <circle cx="439" cy="470" r="2.7199999999999998" fill="rgba(255,221,120,0.24)"></circle>
    <rect x="431" y="480" width="16" height="16" rx="7" fill="rgba(255,255,255,0.03)"></rect>
    <circle cx="439" cy="488" r="11.264000000000001" fill="rgba(255,226,122,0.22)" opacity="0.5"></circle>
    <circle cx="439" cy="488" r="5.12" fill="#ffe27a"></circle>
    <rect x="449" y="372" width="16" height="16" rx="7" fill="rgba(255,255,255,0.03)"></rect>
    <rect x="449" y="390" width="16" height="16" rx="7" fill="rgba(255,255,255,0.03)"></rect>
    <circle cx="457" cy="398" r="5.984" fill="rgba(255,226,122,0.22)" opacity="0.26"></circle>
    <circle cx="457" cy="398" r="2.7199999999999998" fill="rgba(255,221,120,0.24)"></circle>
    <rect x="449" y="408" width="16" height="16" rx="7" fill="rgba(255,255,255,0.03)"></rect>
    <circle cx="457" cy="416" r="9.504000000000001" fill="rgba(255,226,122,0.22)" opacity="0.42"></circle>
    <circle cx="457" cy="416" r="4.32" fill="rgba(255,221,120,0.72)"></circle>
    <rect x="449" y="426" width="16" height="16" rx="7" fill="rgba(255,255,255,0.03)"></rect>
    <circle cx="457" cy="434" r="7.744000000000001" fill="rgba(255,226,122,0.22)" opacity="0.33999999999999997"></circle>
    <circle cx="457" cy="434" r="3.52" fill="rgba(255,221,120,0.44)"></circle>
    <rect x="449" y="444" width="16" height="16" rx="7" fill="rgba(255,255,255,0.03)"></rect>
    <circle cx="457" cy="452" r="5.984" fill="rgba(255,226,122,0.22)" opacity="0.26"></circle>
    <circle cx="457" cy="452" r="2.7199999999999998" fill="rgba(255,221,120,0.24)"></circle>
    <rect x="449" y="462" width="16" height="16" rx="7" fill="rgba(255,255,255,0.03)"></rect>
    <circle cx="457" cy="470" r="5.984" fill="rgba(255,226,122,0.22)" opacity="0.26"></circle>
    <circle cx="457" cy="470" r="2.7199999999999998" fill="rgba(255,221,120,0.24)"></circle>
    <rect x="449" y="480" width="16" height="16" rx="7" fill="rgba(255,255,255,0.03)"></rect>
    <circle cx="457" cy="488" r="5.984" fill="rgba(255,226,122,0.22)" opacity="0.26"></circle>
    <circle cx="457" cy="488" r="2.7199999999999998" fill="rgba(255,221,120,0.24)"></circle>
    <rect x="467" y="372" width="16" height="16" rx="7" fill="rgba(255,255,255,0.03)"></rect>
    <circle cx="475" cy="380" r="5.984" fill="rgba(255,226,122,0.22)" opacity="0.26"></circle>
    <circle cx="475" cy="380" r="2.7199999999999998" fill="rgba(255,221,120,0.24)"></circle>
    <rect x="467" y="390" width="16" height="16" rx="7" fill="rgba(255,255,255,0.03)"></rect>
    <rect x="467" y="408" width="16" height="16" rx="7" fill="rgba(255,255,255,0.03)"></rect>
    <rect x="467" y="426" width="16" height="16" rx="7" fill="rgba(255,255,255,0.03)"></rect>
    <circle cx="475" cy="434" r="5.984" fill="rgba(255,226,122,0.22)" opacity="0.26"></circle>
    <circle cx="475" cy="434" r="2.7199999999999998" fill="rgba(255,221,120,0.24)"></circle>
    <rect x="467" y="444" width="16" height="16" rx="7" fill="rgba(255,255,255,0.03)"></rect>
    <circle cx="475" cy="452" r="5.984" fill="rgba(255,226,122,0.22)" opacity="0.26"></circle>
    <circle cx="475" cy="452" r="2.7199999999999998" fill="rgba(255,221,120,0.24)"></circle>
    <rect x="467" y="462" width="16" height="16" rx="7" fill="rgba(255,255,255,0.03)"></rect>
    <circle cx="475" cy="470" r="5.984" fill="rgba(255,226,122,0.22)" opacity="0.26"></circle>
    <circle cx="475" cy="470" r="2.7199999999999998" fill="rgba(255,221,120,0.24)"></circle>
    <rect x="467" y="480" width="16" height="16" rx="7" fill="rgba(255,255,255,0.03)"></rect>
    <rect x="485" y="372" width="16" height="16" rx="7" fill="rgba(255,255,255,0.03)"></rect>
    <circle cx="493" cy="380" r="5.984" fill="rgba(255,226,122,0.22)" opacity="0.26"></circle>
    <circle cx="493" cy="380" r="2.7199999999999998" fill="rgba(255,221,120,0.24)"></circle>
    <rect x="485" y="390" width="16" height="16" rx="7" fill="rgba(255,255,255,0.03)"></rect>
    <rect x="485" y="408" width="16" height="16" rx="7" fill="rgba(255,255,255,0.03)"></rect>
    <circle cx="493" cy="416" r="7.744000000000001" fill="rgba(255,226,122,0.22)" opacity="0.33999999999999997"></circle>
    <circle cx="493" cy="416" r="3.52" fill="rgba(255,221,120,0.44)"></circle>
    <rect x="485" y="426" width="16" height="16" rx="7" fill="rgba(255,255,255,0.03)"></rect>
    <circle cx="493" cy="434" r="11.264000000000001" fill="rgba(255,226,122,0.22)" opacity="0.5"></circle>
    <circle cx="493" cy="434" r="5.12" fill="#ffe27a"></circle>
    <rect x="485" y="444" width="16" height="16" rx="7" fill="rgba(255,255,255,0.03)"></rect>
    <circle cx="493" cy="452" r="5.984" fill="rgba(255,226,122,0.22)" opacity="0.26"></circle>
    <circle cx="493" cy="452" r="2.7199999999999998" fill="rgba(255,221,120,0.24)"></circle>
    <rect x="485" y="462" width="16" height="16" rx="7" fill="rgba(255,255,255,0.03)"></rect>
    <circle cx="493" cy="470" r="7.744000000000001" fill="rgba(255,226,122,0.22)" opacity="0.33999999999999997"></circle>
    <circle cx="493" cy="470" r="3.52" fill="rgba(255,221,120,0.44)"></circle>
    <rect x="485" y="480" width="16" height="16" rx="7" fill="rgba(255,255,255,0.03)"></rect>
    <rect x="503" y="372" width="16" height="16" rx="7" fill="rgba(255,255,255,0.03)"></rect>
    <circle cx="511" cy="380" r="5.984" fill="rgba(255,226,122,0.22)" opacity="0.26"></circle>
    <circle cx="511" cy="380" r="2.7199999999999998" fill="rgba(255,221,120,0.24)"></circle>
    <rect x="503" y="390" width="16" height="16" rx="7" fill="rgba(255,255,255,0.03)"></rect>
    <circle cx="511" cy="398" r="5.984" fill="rgba(255,226,122,0.22)" opacity="0.26"></circle>
    <circle cx="511" cy="398" r="2.7199999999999998" fill="rgba(255,221,120,0.24)"></circle>
    <rect x="503" y="408" width="16" height="16" rx="7" fill="rgba(255,255,255,0.03)"></rect>
    <circle cx="511" cy="416" r="7.744000000000001" fill="rgba(255,226,122,0.22)" opacity="0.33999999999999997"></circle>
    <circle cx="511" cy="416" r="3.52" fill="rgba(255,221,120,0.44)"></circle>
    <rect x="503" y="426" width="16" height="16" rx="7" fill="rgba(255,255,255,0.03)"></rect>
    <circle cx="511" cy="434" r="7.744000000000001" fill="rgba(255,226,122,0.22)" opacity="0.33999999999999997"></circle>
    <circle cx="511" cy="434" r="3.52" fill="rgba(255,221,120,0.44)"></circle>
    <rect x="503" y="444" width="16" height="16" rx="7" fill="rgba(255,255,255,0.03)"></rect>
    <circle cx="511" cy="452" r="9.504000000000001" fill="rgba(255,226,122,0.22)" opacity="0.42"></circle>
    <circle cx="511" cy="452" r="4.32" fill="rgba(255,221,120,0.72)"></circle>
    <rect x="503" y="462" width="16" height="16" rx="7" fill="rgba(255,255,255,0.03)"></rect>
    <circle cx="511" cy="470" r="11.264000000000001" fill="rgba(255,226,122,0.22)" opacity="0.5"></circle>
    <circle cx="511" cy="470" r="5.12" fill="#ffe27a"></circle>
    <rect x="503" y="480" width="16" height="16" rx="7" fill="rgba(255,255,255,0.03)"></rect>
    <rect x="521" y="372" width="16" height="16" rx="7" fill="rgba(255,255,255,0.03)"></rect>
    <rect x="521" y="390" width="16" height="16" rx="7" fill="rgba(255,255,255,0.03)"></rect>
    <circle cx="529" cy="398" r="7.744000000000001" fill="rgba(255,226,122,0.22)" opacity="0.33999999999999997"></circle>
    <circle cx="529" cy="398" r="3.52" fill="rgba(255,221,120,0.44)"></circle>
    <rect x="521" y="408" width="16" height="16" rx="7" fill="rgba(255,255,255,0.03)"></rect>
    <circle cx="529" cy="416" r="7.744000000000001" fill="rgba(255,226,122,0.22)" opacity="0.33999999999999997"></circle>
    <circle cx="529" cy="416" r="3.52" fill="rgba(255,221,120,0.44)"></circle>
    <rect x="521" y="426" width="16" height="16" rx="7" fill="rgba(255,255,255,0.03)"></rect>
    <circle cx="529" cy="434" r="7.744000000000001" fill="rgba(255,226,122,0.22)" opacity="0.33999999999999997"></circle>
    <circle cx="529" cy="434" r="3.52" fill="rgba(255,221,120,0.44)"></circle>
    <rect x="521" y="444" width="16" height="16" rx="7" fill="rgba(255,255,255,0.03)"></rect>
    <circle cx="529" cy="452" r="7.744000000000001" fill="rgba(255,226,122,0.22)" opacity="0.33999999999999997"></circle>
    <circle cx="529" cy="452" r="3.52" fill="rgba(255,221,120,0.44)"></circle>
    <rect x="521" y="462" width="16" height="16" rx="7" fill="rgba(255,255,255,0.03)"></rect>
    <circle cx="529" cy="470" r="9.504000000000001" fill="rgba(255,226,122,0.22)" opacity="0.42"></circle>
    <circle cx="529" cy="470" r="4.32" fill="rgba(255,221,120,0.72)"></circle>
    <rect x="521" y="480" width="16" height="16" rx="7" fill="rgba(255,255,255,0.03)"></rect>
    <rect x="539" y="372" width="16" height="16" rx="7" fill="rgba(255,255,255,0.03)"></rect>
    <rect x="539" y="390" width="16" height="16" rx="7" fill="rgba(255,255,255,0.03)"></rect>
    <circle cx="547" cy="398" r="5.984" fill="rgba(255,226,122,0.22)" opacity="0.26"></circle>
    <circle cx="547" cy="398" r="2.7199999999999998" fill="rgba(255,221,120,0.24)"></circle>
    <rect x="539" y="408" width="16" height="16" rx="7" fill="rgba(255,255,255,0.03)"></rect>
    <circle cx="547" cy="416" r="9.504000000000001" fill="rgba(255,226,122,0.22)" opacity="0.42"></circle>
    <circle cx="547" cy="416" r="4.32" fill="rgba(255,221,120,0.72)"></circle>
    <rect x="539" y="426" width="16" height="16" rx="7" fill="rgba(255,255,255,0.03)"></rect>
    <circle cx="547" cy="434" r="7.744000000000001" fill="rgba(255,226,122,0.22)" opacity="0.33999999999999997"></circle>
    <circle cx="547" cy="434" r="3.52" fill="rgba(255,221,120,0.44)"></circle>
    <rect x="539" y="444" width="16" height="16" rx="7" fill="rgba(255,255,255,0.03)"></rect>
    <circle cx="547" cy="452" r="5.984" fill="rgba(255,226,122,0.22)" opacity="0.26"></circle>
    <circle cx="547" cy="452" r="2.7199999999999998" fill="rgba(255,221,120,0.24)"></circle>
    <rect x="539" y="462" width="16" height="16" rx="7" fill="rgba(255,255,255,0.03)"></rect>
    <rect x="539" y="480" width="16" height="16" rx="7" fill="rgba(255,255,255,0.03)"></rect>
    <rect x="557" y="372" width="16" height="16" rx="7" fill="rgba(255,255,255,0.03)"></rect>
    <rect x="557" y="390" width="16" height="16" rx="7" fill="rgba(255,255,255,0.03)"></rect>
    <circle cx="565" cy="398" r="11.264000000000001" fill="rgba(255,226,122,0.22)" opacity="0.5"></circle>
    <circle cx="565" cy="398" r="5.12" fill="#ffe27a"></circle>
    <rect x="557" y="408" width="16" height="16" rx="7" fill="rgba(255,255,255,0.03)"></rect>
    <circle cx="565" cy="416" r="9.504000000000001" fill="rgba(255,226,122,0.22)" opacity="0.42"></circle>
    <circle cx="565" cy="416" r="4.32" fill="rgba(255,221,120,0.72)"></circle>
    <rect x="557" y="426" width="16" height="16" rx="7" fill="rgba(255,255,255,0.03)"></rect>
    <circle cx="565" cy="434" r="5.984" fill="rgba(255,226,122,0.22)" opacity="0.26"></circle>
    <circle cx="565" cy="434" r="2.7199999999999998" fill="rgba(255,221,120,0.24)"></circle>
    <rect x="557" y="444" width="16" height="16" rx="7" fill="rgba(255,255,255,0.03)"></rect>
    <circle cx="565" cy="452" r="5.984" fill="rgba(255,226,122,0.22)" opacity="0.26"></circle>
    <circle cx="565" cy="452" r="2.7199999999999998" fill="rgba(255,221,120,0.24)"></circle>
    <rect x="557" y="462" width="16" height="16" rx="7" fill="rgba(255,255,255,0.03)"></rect>
    <circle cx="565" cy="470" r="5.984" fill="rgba(255,226,122,0.22)" opacity="0.26"></circle>
    <circle cx="565" cy="470" r="2.7199999999999998" fill="rgba(255,221,120,0.24)"></circle>
    <rect x="557" y="480" width="16" height="16" rx="7" fill="rgba(255,255,255,0.03)"></rect>
    <circle cx="565" cy="488" r="5.984" fill="rgba(255,226,122,0.22)" opacity="0.26"></circle>
    <circle cx="565" cy="488" r="2.7199999999999998" fill="rgba(255,221,120,0.24)"></circle>
    <rect x="575" y="372" width="16" height="16" rx="7" fill="rgba(255,255,255,0.03)"></rect>
    <rect x="575" y="390" width="16" height="16" rx="7" fill="rgba(255,255,255,0.03)"></rect>
    <circle cx="583" cy="398" r="5.984" fill="rgba(255,226,122,0.22)" opacity="0.26"></circle>
    <circle cx="583" cy="398" r="2.7199999999999998" fill="rgba(255,221,120,0.24)"></circle>
    <rect x="575" y="408" width="16" height="16" rx="7" fill="rgba(255,255,255,0.03)"></rect>
    <rect x="575" y="426" width="16" height="16" rx="7" fill="rgba(255,255,255,0.03)"></rect>
    <circle cx="583" cy="434" r="5.984" fill="rgba(255,226,122,0.22)" opacity="0.26"></circle>
    <circle cx="583" cy="434" r="2.7199999999999998" fill="rgba(255,221,120,0.24)"></circle>
    <rect x="575" y="444" width="16" height="16" rx="7" fill="rgba(255,255,255,0.03)"></rect>
    <circle cx="583" cy="452" r="5.984" fill="rgba(255,226,122,0.22)" opacity="0.26"></circle>
    <circle cx="583" cy="452" r="2.7199999999999998" fill="rgba(255,221,120,0.24)"></circle>
    <rect x="575" y="462" width="16" height="16" rx="7" fill="rgba(255,255,255,0.03)"></rect>
    <circle cx="583" cy="470" r="5.984" fill="rgba(255,226,122,0.22)" opacity="0.26"></circle>
    <circle cx="583" cy="470" r="2.7199999999999998" fill="rgba(255,221,120,0.24)"></circle>
    <rect x="575" y="480" width="16" height="16" rx="7" fill="rgba(255,255,255,0.03)"></rect>
    <rect x="593" y="372" width="16" height="16" rx="7" fill="rgba(255,255,255,0.03)"></rect>
    <rect x="593" y="390" width="16" height="16" rx="7" fill="rgba(255,255,255,0.03)"></rect>
    <rect x="593" y="408" width="16" height="16" rx="7" fill="rgba(255,255,255,0.03)"></rect>
    <circle cx="601" cy="416" r="5.984" fill="rgba(255,226,122,0.22)" opacity="0.26"></circle>
    <circle cx="601" cy="416" r="2.7199999999999998" fill="rgba(255,221,120,0.24)"></circle>
    <rect x="593" y="426" width="16" height="16" rx="7" fill="rgba(255,255,255,0.03)"></rect>
    <circle cx="601" cy="434" r="7.744000000000001" fill="rgba(255,226,122,0.22)" opacity="0.33999999999999997"></circle>
    <circle cx="601" cy="434" r="3.52" fill="rgba(255,221,120,0.44)"></circle>
    <rect x="593" y="444" width="16" height="16" rx="7" fill="rgba(255,255,255,0.03)"></rect>
    <circle cx="601" cy="452" r="5.984" fill="rgba(255,226,122,0.22)" opacity="0.26"></circle>
    <circle cx="601" cy="452" r="2.7199999999999998" fill="rgba(255,221,120,0.24)"></circle>
    <rect x="593" y="462" width="16" height="16" rx="7" fill="rgba(255,255,255,0.03)"></rect>
    <circle cx="601" cy="470" r="9.504000000000001" fill="rgba(255,226,122,0.22)" opacity="0.42"></circle>
    <circle cx="601" cy="470" r="4.32" fill="rgba(255,221,120,0.72)"></circle>
    <rect x="593" y="480" width="16" height="16" rx="7" fill="rgba(255,255,255,0.03)"></rect>
    <rect x="611" y="372" width="16" height="16" rx="7" fill="rgba(255,255,255,0.03)"></rect>
    <rect x="611" y="390" width="16" height="16" rx="7" fill="rgba(255,255,255,0.03)"></rect>
    <rect x="611" y="408" width="16" height="16" rx="7" fill="rgba(255,255,255,0.03)"></rect>
    <rect x="611" y="426" width="16" height="16" rx="7" fill="rgba(255,255,255,0.03)"></rect>
    <rect x="611" y="444" width="16" height="16" rx="7" fill="rgba(255,255,255,0.03)"></rect>
    <rect x="611" y="462" width="16" height="16" rx="7" fill="rgba(255,255,255,0.03)"></rect>
    <rect x="611" y="480" width="16" height="16" rx="7" fill="rgba(255,255,255,0.03)"></rect>
  </g>
  <text font-weight="500" x="341" y="512" font-family="'IBM Plex Mono', 'Nanum Gothic Coding', D2Coding, Consolas, 'Apple SD Gothic Neo', 'Malgun Gothic', 'Courier New', monospace" font-size="10" fill="#bfa4b5">76 active days</text>

  <rect x="28" y="528" width="924" height="1" fill="rgba(250,162,193,0.07)"></rect>
  <circle cx="50" cy="552" r="5" fill="#d6336c"></circle>
  <text font-weight="500" x="64" y="558" font-family="'IBM Plex Mono', 'Nanum Gothic Coding', D2Coding, Consolas, 'Apple SD Gothic Neo', 'Malgun Gothic', 'Courier New', monospace" font-size="13" fill="#bfa4b5">shipping after dark</text>

  <g aria-hidden="true" pointer-events="none">
    <rect x="762" y="118" width="164" height="1.5" rx="0.75" fill="rgba(255,255,255,0.08)"></rect>
    <rect x="762" y="117.75" width="43" height="2" rx="1" fill="#faa2c1" opacity="0">
      <animate attributeName="x" values="762;883;883" keyTimes="0;0.56;1" dur="3.4s" repeatCount="indefinite"/>
      <animate attributeName="width" values="0;43;43;0" keyTimes="0;0.16;0.56;1" dur="3.4s" repeatCount="indefinite"/>
      <animate attributeName="opacity" values="0;0.85;0.72;0" keyTimes="0;0.16;0.56;1" dur="3.4s" repeatCount="indefinite"/>
    </rect>
    <circle cx="936" cy="118.75" r="1.8" fill="#faa2c1" opacity="0">
      <animate attributeName="opacity" values="0;0.95;0.95;0;0" keyTimes="0;0.16;0.56;0.72;1" dur="3.4s" repeatCount="indefinite"/>
    </circle>
  </g>
</svg>